<svg width="82" height="81" viewBox="0 0 82 81" fill="none" xmlns="http://www.w3.org/2000/svg">
<path d="M40.5771 32.6099C40.5771 37.0101 44.276 40.7166 48.3412 39.0327V39.0327C50.8027 38.0132 53.0393 36.5187 54.9233 34.6347C56.8073 32.7508 58.3017 30.5142 59.3213 28.0527C60.3409 25.5911 60.8657 22.9529 60.8657 20.2886C60.8657 17.6242 60.3409 14.986 59.3213 12.5245C58.3017 10.0629 56.8073 7.82635 54.9233 5.94238C53.0393 4.05841 50.8027 2.56397 48.3412 1.54437V1.54437C44.276 -0.139506 40.5771 3.56706 40.5771 7.96725L40.5771 32.6099Z" fill="#EA4235"/>
<path d="M40.5771 40.5776C43.2414 40.5776 45.8797 40.0528 48.3412 39.0332C50.8027 38.0136 53.0393 36.5191 54.9233 34.6352C56.8073 32.7512 58.3017 30.5146 59.3213 28.0531C60.3409 25.5916 60.8657 22.9533 60.8657 20.289C60.8657 17.6247 60.3409 14.9864 59.3213 12.5249C58.3017 10.0634 56.8073 7.82679 54.9233 5.94282C53.0393 4.05885 50.8027 2.56441 48.3412 1.54481C45.8797 0.525216 43.2414 17.4346 40.5771 17.4346L40.5771 40.5776Z" fill="#EA4235"/>
<path d="M32.6099 40.5C37.0101 40.5 40.7166 36.8011 39.0327 32.7359V32.7359C38.0132 30.2744 36.5187 28.0378 34.6347 26.1538C32.7508 24.2698 30.5142 22.7754 28.0527 21.7558C25.5911 20.7362 22.9529 20.2114 20.2886 20.2114C17.6242 20.2114 14.986 20.7362 12.5245 21.7558C10.0629 22.7754 7.82635 24.2698 5.94238 26.1538C4.05841 28.0378 2.56397 30.2744 1.54437 32.7359V32.7359C-0.139506 36.8011 3.56706 40.5 7.96725 40.5L32.6099 40.5Z" fill="#FABC05"/>
<path d="M40.5771 40.5C40.5771 37.8357 40.0523 35.1974 39.0327 32.7359C38.0131 30.2744 36.5187 28.0378 34.6347 26.1538C32.7507 24.2698 30.5141 22.7754 28.0526 21.7558C25.5911 20.7362 22.9529 20.2114 20.2885 20.2114C17.6242 20.2114 14.986 20.7362 12.5244 21.7558C10.0629 22.7754 7.82632 24.2698 5.94235 26.1538C4.05839 28.0378 2.56394 30.2744 1.54435 32.7359C0.52475 35.1974 16.8943 37.8357 16.8943 40.5L40.5771 40.5Z" fill="#FABC05"/>
<path d="M40.6543 48.3901C40.6543 43.9899 36.9554 40.2834 32.8902 41.9673C30.4286 42.9868 28.192 44.4813 26.3081 46.3653C24.4241 48.2492 22.9297 50.4858 21.9101 52.9473C20.8905 55.4089 20.3657 58.0471 20.3657 60.7114C20.3657 63.3758 20.8905 66.014 21.9101 68.4755C22.9297 70.9371 24.4241 73.1737 26.3081 75.0576C28.192 76.9416 30.4286 78.436 32.8902 79.4556C36.9554 81.1395 40.6543 77.4329 40.6543 73.0327L40.6543 48.3901Z" fill="#34A853"/>
<path d="M40.6543 40.4231C37.9899 40.4231 35.3517 40.9479 32.8902 41.9675C30.4286 42.9871 28.192 44.4816 26.3081 46.3655C24.4241 48.2495 22.9297 50.4861 21.9101 52.9476C20.8905 55.4091 20.3657 58.0474 20.3657 60.7117C20.3657 63.376 20.8905 66.0143 21.9101 68.4758C22.9297 70.9373 24.4241 73.1739 26.3081 75.0579C28.192 76.9419 30.4286 78.4363 32.8902 79.4559C35.3517 80.4755 37.9899 67.1917 40.6543 67.1917L40.6543 40.4231Z" fill="#34A853"/>
<path d="M48.5444 40.4229C44.1442 40.4229 40.4376 44.1217 42.1215 48.187V48.187C43.1411 50.6485 44.6355 52.8851 46.5195 54.769C48.4035 56.653 50.6401 58.1475 53.1016 59.1671C55.5631 60.1866 58.2013 60.7114 60.8657 60.7114C63.53 60.7114 66.1682 60.1866 68.6298 59.1671C71.0913 58.1475 73.3279 56.653 75.2119 54.769C77.0958 52.8851 78.5903 50.6485 79.6099 48.187V48.187C81.2937 44.1217 77.5872 40.4229 73.187 40.4229L48.5444 40.4229Z" fill="#4286F5"/>
<path d="M40.5771 40.4229C40.5771 43.0872 41.1019 45.7254 42.1215 48.187C43.1411 50.6485 44.6355 52.8851 46.5195 54.769C48.4035 56.653 50.6401 58.1475 53.1016 59.1671C55.5631 60.1866 58.2013 60.7114 60.8657 60.7114C63.53 60.7114 66.1682 60.1866 68.6298 59.1671C71.0913 58.1475 73.3279 56.653 75.2119 54.769C77.0958 52.8851 78.5903 50.6485 79.6099 48.187C80.6295 45.7254 68.6298 43.0872 68.6298 40.4229L40.5771 40.4229Z" fill="#4286F5"/>
</svg>
